<?xml version="1.0" encoding="UTF-8" standalone="no"?>
<!-- Created with Inkscape (http://www.inkscape.org/) -->

<svg
   version="1.1"
   id="svg55"
   width="417.87134"
   height="521.81592"
   viewBox="0 0 417.87134 521.81592"
   sodipodi:docname="photo_2022-09-21_10-14-38.jpg"
   xmlns:inkscape="http://www.inkscape.org/namespaces/inkscape"
   xmlns:sodipodi="http://sodipodi.sourceforge.net/DTD/sodipodi-0.dtd"
   xmlns="http://www.w3.org/2000/svg"
   xmlns:svg="http://www.w3.org/2000/svg">
  <defs
     id="defs59" />
  <sodipodi:namedview
     id="namedview57"
     pagecolor="#ffffff"
     bordercolor="#000000"
     borderopacity="0.25"
     inkscape:showpageshadow="2"
     inkscape:pageopacity="0.0"
     inkscape:pagecheckerboard="0"
     inkscape:deskcolor="#d1d1d1"
     showgrid="false" />
  <g
     inkscape:groupmode="layer"
     inkscape:label="Image"
     id="g61"
     transform="translate(-36.124905,-32.167747)">
    <path
       style="fill:#000000"
       d="m 282,551.16322 c -3.025,-1.5463 -25.975,-14.65253 -51,-29.12497 -60.45938,-34.96482 -69.14031,-40.02312 -71.38539,-41.59563 -3.11503,-2.18186 -5.60099,-6.72072 -5.60802,-10.23913 -0.005,-2.61266 -0.62814,-3.64989 -3.00277,-5 -1.64791,-0.93692 -3.78541,-3.27849 -4.75,-5.20349 -1.62474,-3.24241 -1.75382,-8.98297 -1.75382,-78 0,-69.33775 0.12243,-74.72403 1.76693,-77.73307 0.97181,-1.77819 3.10931,-3.92725 4.75,-4.77568 2.5544,-1.32094 2.98307,-2.11583 2.98307,-5.53162 0,-3.13848 0.69295,-4.71168 3.25,-7.37842 3.77721,-3.93925 124.21082,-73.74017 130.46161,-75.61295 3.45138,-1.03406 4.57454,-0.97199 7.33552,0.40536 4.21566,2.10305 6.25656,2.05328 8.29788,-0.20236 2.46972,-2.729 2.08112,-6.01998 -0.86957,-7.3644 -1.38851,-0.63265 -3.52601,-2.7605 -4.75,-4.72857 C 295.00219,197.05407 295.5,143.79418 295.5,120.5 c 0,-71.00629 0.0978,-75.161417 1.83644,-78.031335 C 299.6027,38.727847 304.17789,36 308.18581,36 c 1.66306,0 5.11409,1.052592 7.66896,2.339094 3.68522,1.855683 117.11912,67.168306 123.21254,70.942936 2.93556,1.81846 5.93269,7.30953 5.93269,10.86933 0,2.79323 0.52093,3.76496 2.5023,4.66773 1.37626,0.62707 3.39958,2.6118 4.49626,4.41052 1.94534,3.19064 1.99406,5.11004 1.9977,78.70851 -0.21353,27.42227 0.17906,53.79598 -0.16207,75.05222 -0.6627,3.30636 -3.45668,6.45709 -6.56561,7.93327 -1.81,0.82469 -2.26832,1.84548 -2.26832,5.05207 0,3.21268 -0.72522,4.82129 -3.61636,8.02144 -2.6676,1.6389 -17.63891,10.9189 -24.71396,15.34798 -1.74332,1.0148 -17.6979,10.2398 -35.45462,20.5 -17.75672,10.26019 -33.73172,19.50778 -35.5,20.55018 -1.76828,1.04241 -5.69006,3.25558 -8.71506,4.91816 -3.025,1.66258 -7.2323,4.10613 -9.34956,5.43011 -6.76135,4.22806 -12.04613,6.95078 -15.93362,8.209 -3.22503,1.04381 -6.09211,0.38526 -8.85132,-0.59803 -3.56317,-1.36368 -4.8084,-1.57098 -7.11762,0.24319 -2.26214,2.12914 -2.20713,6.01793 1.23596,8.05182 1.64111,0.96943 3.77861,3.35737 4.75,5.30653 1.64072,3.29224 1.76616,8.83825 1.76616,78.08825 0,70.16572 -0.10598,74.70604 -1.80433,77.29774 -2.38269,3.63601 -7.46784,6.65264 -11.19567,6.64154 -1.65,-0.005 -5.475,-1.27408 -8.5,-2.82037 z m 12.39301,-7.74501 C 294.72686,542.54823 295,509.05537 295,468.98964 c 0,-64.89101 -0.17162,-73.0184 -1.57143,-74.41821 -1.91566,-1.91566 -3.18213,-1.95897 -6.42857,-0.21986 -2.23157,1.19544 -37.25813,21.41442 -41,23.66712 C 239.13428,422.15203 230.728,427 230.4266,427 c -0.20295,0 -3.86946,2.08287 -8.1478,4.6286 -4.27834,2.54573 -9.3538,5.51534 -11.2788,6.59914 -18.76583,10.56537 -45.86168,26.39067 -47.29733,27.62394 -1.06737,0.91691 -1.67658,2.58005 -1.5,4.09503 0.3466,2.97377 -3.74837,0.459 72.29733,44.39871 53.6529,31.001 58.28944,33.25163 59.89301,29.07279 z M 166.5,454.35814 c 3.3,-2.0002 7.575,-4.52193 9.5,-5.60384 3.08479,-1.73375 70.14357,-40.50935 74,-42.78924 C 261.33823,399.26199 265.26063,397 265.54585,397 c 0.18779,0 4.64431,-2.51916 9.90337,-5.59813 10.46732,-6.1282 12.50933,-8.95969 8.93202,-12.38529 C 281.17166,375.94312 159.24641,306 157.09831,306 c -1.11537,0 -2.49378,0.87042 -3.06313,1.93426 -1.58216,2.9563 -1.42238,147.27854 0.16482,148.86574 2.09983,2.09983 6.12549,1.30063 12.3,-2.44186 z M 293.8,369.8 c 1.7367,-1.7367 1.7367,-147.8633 0,-149.6 -2.16475,-2.16475 -5.52725,-1.27097 -13.97375,3.71433 -9.86743,5.82398 -50.38469,29.24844 -56.82625,32.85328 -2.475,1.38507 -5.69447,3.35397 -7.15437,4.37534 -1.4599,1.02138 -2.94402,1.85705 -3.29804,1.85705 -0.35401,0 -2.98455,1.48986 -5.84563,3.3108 -2.86108,1.82094 -5.98831,3.60637 -6.9494,3.96763 -0.96109,0.36126 -4.23232,2.2464 -7.26941,4.1892 -3.03709,1.9428 -5.71289,3.53237 -5.94621,3.53237 -0.23333,0 -4.83709,2.5497 -10.23059,5.66601 -14.88033,8.59771 -16.69343,10.85281 -12.05635,14.99545 1.62695,1.45347 99.29916,58.30527 122.25,71.15772 2.63933,1.47803 5.81113,1.46969 7.3,-0.0192 z m 31.01506,-7.05 c 7.80181,-4.5375 16.99757,-9.86829 20.43503,-11.84619 3.43745,-1.97791 9.17491,-5.29859 12.74991,-7.3793 3.575,-2.08071 8.975,-5.13973 12,-6.79782 3.025,-1.65809 5.95,-3.35195 6.5,-3.76413 0.55,-0.41219 2.8,-1.75168 5,-2.97664 3.20028,-1.78193 28.00319,-16.1529 34.5,-19.98954 0.825,-0.48719 4.875,-2.79081 9,-5.11914 12.92171,-7.29358 14.53221,-9.90322 8.75,-14.1784 C 427.21436,285.8666 310.2886,219 308.37438,219 c -1.08591,0 -2.51438,0.54 -3.17438,1.2 -1.7367,1.7367 -1.7367,147.8633 0,149.6 2.30258,2.30258 5.52653,1.14383 19.61506,-7.05 z M 444.96482,282.06574 C 446.54698,279.10944 446.3872,134.7872 444.8,133.2 c -2.91479,-2.91479 -5.86868,-1.43326 -59.20077,29.69239 -2.25458,1.31581 -5.89923,3.40689 -8.09923,4.64683 -2.2,1.23994 -8.05,4.60863 -13,7.48597 -4.95,2.87735 -10.575,6.12617 -12.5,7.21961 -39.77393,22.59235 -41.98355,24.29269 -37.38124,28.76544 1.03468,1.00556 25.05624,15.20894 53.38124,31.56308 28.325,16.35413 56,32.36102 61.5,35.57086 10.6503,6.21559 13.80849,7.01644 15.46482,3.92156 z M 317.76942,192.34689 C 320.6676,190.5061 323.20642,189 323.41124,189 c 0.20482,0 19.88358,-11.29885 43.73058,-25.10856 23.847,-13.80971 44.93318,-26.00427 46.85818,-27.09902 15.91595,-9.05142 21.09101,-12.19716 22.13501,-13.4551 3.32846,-4.01055 1.52468,-5.22804 -62.63501,-42.27651 -34.1,-19.690758 -62.96508,-36.100025 -64.14463,-36.465038 -1.3716,-0.424445 -2.72328,-0.08501 -3.75,0.941713 C 304.16052,46.982342 304,54.529749 304,121.02174 c 0,69.31548 0.1081,73.94028 1.75,74.87296 2.42784,1.37911 5.85509,0.36748 12.01942,-3.54781 z M 43.061664,288.17273 c -1.873924,-1.00499 -4.239488,-3.36749 -5.25681,-5.25 -1.721727,-3.18596 -1.830833,-6.05137 -1.577266,-41.42273 0.257626,-35.93738 0.378566,-38.13967 2.2281,-40.57317 3.814558,-5.01896 10.404764,-6.31126 16.640674,-3.26312 9.320633,4.55596 57.828478,33.18138 60.688298,35.81334 3.42709,3.15403 4.99042,8.29865 3.87375,12.74781 -0.67931,2.7066 -5.09364,7.67561 -8.54542,9.61918 -1.31285,0.73921 -4.01285,2.26534 -6,3.39138 -1.98714,1.12604 -5.41299,3.0623 -7.61299,4.30279 -2.2,1.2405 -8.05,4.61672 -13,7.50271 C 57.341552,286.87509 51.260987,290 47.608672,290 c -0.626932,0 -2.673085,-0.82227 -4.547008,-1.82727 z m 11.706742,-9.68112 c 14.082479,-7.46564 55.709364,-32.2334 56.599714,-33.67651 1.90988,-3.0956 -1.19366,-6.14654 -13.179231,-12.9559 C 91.76,228.20676 78.214189,220.44426 68.087086,214.6092 57.959983,208.77414 49.104626,204 48.408514,204 c -0.696111,0 -1.9728,0.70714 -2.837085,1.57143 C 44.202731,206.94013 44,211.65749 44,242.13717 c 0,22.21012 0.378175,35.70094 1.035184,36.92857 1.387903,2.59332 4.055219,2.43599 9.733222,-0.57413 z M 190.68829,200.29879 C 188.18658,199.65088 65.220087,128.50915 62.771113,126.29286 59.85356,123.65251 58,119.54354 58,115.71627 c 0,-6.1588 3.845536,-9.29165 28.578162,-23.281825 24.690658,-14.35387 51.058668,-29.380079 74.542288,-43.099693 30.68871,-17.975035 33.36905,-19.028262 39.79474,-15.637115 1.87836,0.9913 4.24086,3.370342 5.25,5.286761 1.73169,3.288574 1.83481,7.631856 1.83481,77.282122 0,61.96495 -0.23086,74.35025 -1.43982,77.2437 -2.39139,5.72339 -9.02669,8.56138 -15.87189,6.78857 z m 7.75501,-9.5213 C 199.81727,188.81587 200,180.09692 200,116.5 200,52.846263 199.81816,44.185401 198.44042,42.218407 196.18568,38.999307 194.13695,39.784522 173.5,51.777311 139.22419,72.118825 105.01229,91.747538 74,109.40866 c -5.166941,2.78504 -7,4.64202 -7,7.09134 0,1.20451 0.7875,2.88107 1.75,3.72568 1.549553,1.35976 111.62985,65.23971 121.73519,70.64333 5.00784,2.67783 6.02659,2.66611 7.95811,-0.0915 z"
       id="path223"
       sodipodi:nodetypes="ssscsssssssssssccssssssscccsccsssssccsssssssssssssssssssssssssssssssssssssssssssssssssssssssssssssssssssssssssssssssssssssssssssssssssssssssccssssssssccsssss"
       inkscape:export-filename="pex.svg"
       inkscape:export-xdpi="96"
       inkscape:export-ydpi="96" />
  </g>
</svg>
