<svg width="460" height="165" viewBox="0 0 460 165" fill="none" xmlns="http://www.w3.org/2000/svg">
<path d="M3.19999 163C1.59999 161.5 0.999994 159.7 0.999994 156.7C0.899994 154.4 0.899994 125.7 0.899994 93V33.5L3.19999 31.5C5.09999 29.9 6.99999 29.5 12.8 29.5H20V18.3V6.99999H33.3C44 6.99999 47.3 7.39999 50.6 8.89999C60.4 13.4 63.1 26.3 55.9 34.5C52.3 38.5 48.8 39.8 40 40.2L33.5 40.6L33.2 49.8L32.9 59H26.5H20V48.9C20 40.1 19.8 38.9 18.4 39.4C17.5 39.7 15.5 40 13.9 40H11V96.8V153.7L118.3 154.3C177.2 154.7 276 155 337.8 155H450V97.5V40H320H190V49.5V59H183.5H177L177.2 31.8L177.5 4.49999L183.7 4.19999L189.9 3.89999L190.2 16.5L190.5 29H322.4H454.4L457.2 31.7L460 34.4V97.2V160.1L457.4 162.5L454.7 165H230C5.49999 165 5.39999 165 3.19999 163ZM45.2 28.3C47.6 26.2 47.5 21.5 45 19C43.5 17.5 41.7 17 38 17H33V23.5V30H38.2C41.6 30 44 29.4 45.2 28.3Z" fill="#2E9D4C"/>
<path d="M335.9 164.6C335.7 164.3 335.6 162.1 335.8 159.6L336.2 155H393.1H450V97.5V40H320H190V49.5V59H183.5H177L177.2 31.8L177.5 4.49999L183.7 4.19999L189.9 3.89999L190.2 16.5L190.5 29H322.4H454.4L457.2 31.7L460 34.4V97.2V160.1L457.4 162.5L454.7 165H395.5C363 165 336.1 164.8 335.9 164.6Z" fill="#E23E2B"/>
<path d="M3.19999 163C1.59999 161.5 0.999994 159.7 0.999994 156.7C0.899994 154.4 0.899994 125.7 0.899994 93V33.5L3.19999 31.5C5.09999 29.9 6.99999 29.5 12.8 29.5H20V18.3V7H33.3C44 7 47.3 7.4 50.6 8.9C60.4 13.4 63.1 26.3 55.9 34.5C52.3 38.5 48.8 39.8 40 40.2L33.5 40.6L33.2 49.8L32.9 59H26.5H20V48.9C20 40.1 19.8 38.9 18.4 39.4C17.5 39.7 15.5 40 13.9 40H11V97V154H82.1C129.1 154 153.8 154.3 155.1 155C156.9 156 156.9 156.2 155.4 158.4C154.3 160.2 154.2 161 155.1 161.6C156 162.1 155.8 162.7 154.5 163.7C153 164.8 139.2 165 79 165C6.29999 165 5.29999 165 3.19999 163ZM45.2 28.3C47.6 26.2 47.5 21.5 45 19C43.5 17.5 41.7 17 38 17H33V23.5V30H38.2C41.6 30 44 29.4 45.2 28.3Z" fill="#3B7CE9"/>
<path d="M335.9 164.6C335.7 164.3 335.6 162.1 335.8 159.6L336.2 155H393.1H450V122.9V90.8L454.8 91.3C457.4 91.6 459.6 91.9 459.8 91.9C459.9 92 460 107.3 460 126V160.1L457.4 162.5L454.7 165H395.5C363 165 336.1 164.8 335.9 164.6Z" fill="#EEB108"/>
<path d="M66 137.7C66 137.3 69.4 131.9 73.6 125.6L81.2 114.2L74.3 103.8C70.5 98.2 67 92.9 66.6 92.3C66.1 91.3 67.6 91 73.3 91H80.8L85.3 98.6L89.7 106.2L94.5 98.6L99.2 91H106.1C109.9 91 113 91.3 113 91.8C113 92.2 109.8 97.2 106 103C102.2 108.8 99 113.9 99 114.3C99 114.7 102.1 119.7 105.8 125.3C109.6 130.9 113 136.1 113.4 136.8C113.9 137.7 112.4 138 106.8 138H99.5L95 130.5C92.5 126.4 90.2 123.1 89.8 123.3C89.4 123.4 87.1 126.7 84.7 130.5L80.5 137.5L73.2 138C69.3 138.3 66 138.2 66 137.7Z" fill="black"/>
<path d="M129.8 137.4C125.2 135 124.5 132.6 124 116.5L123.5 101.5L120.3 101.2C115.5 100.7 115.7 96.9 120.8 93.5C123.5 91.7 125 89.7 126.3 86C128.1 81 128.1 81 132.5 81H137V86V91H143.5H150V96V101H143.5C139 101 137 101.4 137 102.3C136.9 102.9 136.9 108.6 136.9 114.8C136.9 128.7 137.3 129.5 144.7 128.7L150 128.1V132.9C150 137.5 149.9 137.8 146.9 138.4C141.5 139.5 132.6 139 129.8 137.4Z" fill="black"/>
<path d="M168.4 136.5C165.3 135 162.1 132.4 160.6 130.1C155.7 123.1 155.2 109.3 159.4 101.1C163.6 93 174.4 88.6 184.2 90.9C194.6 93.3 199.9 100.3 200 111.8V118H185C170.5 118 170 118.1 170 120.1C170 127.7 179.7 131.1 191.5 127.5C194.2 126.7 196.7 126.3 197.2 126.6C197.7 126.9 198 129 197.8 131.2C197.5 137 194.9 138.4 183.1 138.8C174.4 139.1 173 138.9 168.4 136.5ZM188 108.5C188 106 185.3 101.3 183.5 100.6C182.6 100.3 180.6 100 179 100C174.8 100 173.1 100.9 171.5 104.1C168.6 109.6 169.1 110 179 110C186.5 110 188 109.7 188 108.5Z" fill="black"/>
<path d="M275.5 137.1C273.9 136.1 271.7 134.4 270.8 133.4C264.6 126.4 263.6 109.2 268.9 99C273.7 89.7 286.4 87.4 294.7 94.4L297.5 96.8L297.2 84.9L296.9 73H303.4H310V105.5V138H304.5C300.8 138 299 137.6 299 136.8C299 136.1 298.5 134.8 298 134C297.2 132.8 296.8 132.9 294.8 134.7C293.5 135.8 291.5 137.3 290.3 137.9C286.9 139.6 278.9 139.2 275.5 137.1ZM292.5 128.4C298.2 126.2 299.5 107.3 294.2 102.7C290 99.2 282.9 100.3 280.6 104.9C277.1 111.8 278.1 122.9 282.5 126.7C285 128.9 289.2 129.6 292.5 128.4Z" fill="black"/>
<path d="M335.5 137.8C330.7 136.1 326.2 132.2 323.8 127.7C322 124.3 321.5 121.9 321.5 115C321.5 103.9 324.2 98 331.5 93.5C335.7 90.9 337.3 90.5 343.4 90.5C356.8 90.6 363.5 97.1 364.7 111L365.3 118H349.6C337.8 118 334 118.3 334 119.3C334 121.7 338 127.1 340.6 128C344.3 129.4 350.9 129.2 356.6 127.5C359.3 126.7 361.6 126 361.8 126C362 126 362 128.4 361.8 131.2C361.5 136.4 361.4 136.5 357.5 137.6C352.6 139.1 339.6 139.2 335.5 137.8ZM352.2 107C351.5 100.3 342.4 97.5 337.5 102.5C336.1 103.8 335 106.1 335 107.5V110.1L343.8 109.8C352.4 109.5 352.5 109.5 352.2 107Z" fill="black"/>
<path d="M383.5 137.8C375.6 133.5 372.6 126.2 373.2 112.6C373.5 104.8 374 102.7 376.3 98.8C381.8 89.4 394.4 87.2 401.9 94.4L404.5 96.9L404.2 85L403.8 73H410.4H417V105.5V138H412C407.6 138 406.8 137.7 405.8 135.5C404.5 132.6 403.7 132.4 401.9 134.6C398.6 138.6 388.3 140.5 383.5 137.8ZM401.5 126.6C405.9 122.2 406 108.5 401.7 103.4C398.5 99.7 392.9 99.7 389.3 103.3C387 105.6 386.5 107 386.2 113C385.6 123.9 388.6 129 395.8 129C397.9 129 399.9 128.2 401.5 126.6Z" fill="black"/>
<path d="M23.7 108.3C23.8 91.9 24 77.9 24 77.3C24 76.3 28.2 76 41.5 76H59V81.5V87H48H37V93.5V99.9L47.3 100.2L57.5 100.5L57.8 105.8L58.1 111H47.6H37V119.3V127.5L48 127.2L59 126.9V132.4V138H41.3H23.5L23.7 108.3Z" fill="black"/>
<path d="M211 114.5V91H215.9C220.6 91 220.9 91.2 221.5 94C221.9 95.7 222.3 97 222.5 97C222.7 97 224.1 95.9 225.6 94.5C230.8 89.7 239.1 88.8 246 92.3C253.7 96.1 254.4 98.6 254.8 119.8L255.2 138H248.7H242.2L241.8 121.5C241.5 106.1 241.4 104.9 239.3 102.8C236.1 99.7 230.6 100 227.1 103.4C224.5 106 224.5 106.3 224.2 122L223.9 138H217.4H211V114.5Z" fill="black"/>
<path d="M143.7 58.6C130.7 55.1 125.2 39 132.6 26.2C138.7 15.7 156 14 165 23C168.6 26.6 171 32.7 171 38.4V41H156.5C140.7 41 140.1 41.3 144.1 46.4C146.7 49.7 152 50 155 47C156.5 45.5 158.3 45 162.8 45C169.5 45 170.3 45.5 168.8 48.4C166.5 52.9 161.5 57.1 156.6 58.5C150.8 60.3 150 60.3 143.7 58.6ZM158 33.2C158 31.3 154.7 28.1 152.1 27.5C149.5 27 143 29.1 143 30.4C143 30.7 142.7 31.5 142.4 32.4C141.9 33.8 142.9 34 149.9 34C154.4 34 158 33.7 158 33.2Z" fill="black"/>
<path d="M20.1 33V7H33.3C44 7 47.3 7.4 50.6 8.9C60.4 13.4 63.1 26.3 55.9 34.5C52.3 38.5 48.8 39.8 40 40.2L33.5 40.6L33.2 49.8L32.9 59H26.5H20.2L20.1 33ZM45.2 28.3C47.6 26.2 47.5 21.5 45 19C43.5 17.5 41.7 17 38 17H33V23.5V30H38.2C41.6 30 44 29.4 45.2 28.3Z" fill="black"/>
<path d="M66 38.5V18H72.5H79V38.5V59H72.5H66V38.5Z" fill="black"/>
<path d="M90.5 49C94.1 43.5 97 38.5 97 37.9C97 37.3 94 32.6 90.4 27.4L83.9 18H91.2H98.5L102.1 23.6L105.7 29.2L108.9 23.6L112.1 18H119.1H126L119.4 28C115.7 33.4 113 38.5 113.3 39.3C113.6 40 116.5 44.6 119.9 49.4C123.3 54.2 126 58.3 126 58.5C126 58.8 122.9 59 119.1 59H112.2L108.5 53.5C106.4 50.5 104.6 48 104.4 48C104.3 48 102.7 50.5 101 53.5L97.9 59H90.9H84L90.5 49Z" fill="black"/>
<path d="M177.2 31.8L177.5 4.49999L183.8 4.19999L190 3.89999V31.5V59H183.5H177L177.2 31.8Z" fill="black"/>
<path d="M66.7 11.2C64.2 8.5 64.5 3.4 67.2 1.6C72.2 -1.9 80 1.1 80 6.5C80 12.1 70.5 15.4 66.7 11.2Z" fill="black"/>
</svg>
